<svg width="200" height="200" viewBox="0 0 200 200" fill="none" xmlns="http://www.w3.org/2000/svg">
<path d="M126.413 119.962L111.05 130.784C103.854 126.685 95.8994 120.964 87.9198 112.985C79.6246 104.689 73.4747 96.1253 68.9401 88.2696L78.7033 79.9826C82.8931 76.4265 84.0398 70.431 81.4587 65.5791L69.0187 42.1991C67.3434 39.0509 64.323 36.8394 60.8159 36.1934C57.3086 35.5476 53.6985 36.5379 51.0117 38.8827L47.3234 42.1018C38.4539 49.8427 33.2081 62.5632 37.5558 75.4434C42.0631 88.7957 51.6822 109.811 71.388 129.517C92.5887 150.718 114.124 159.067 126.718 162.309C136.864 164.92 146.466 161.42 153.234 155.907L160.148 150.272C163.106 147.863 164.701 144.161 164.423 140.356C164.143 136.551 162.025 133.121 158.747 131.167L139.128 119.477C135.165 117.117 130.185 117.306 126.413 119.962Z" fill="#FF6B35"/>
</svg>
